<svg xmlns="http://www.w3.org/2000/svg" xmlns:xlink="http://www.w3.org/1999/xlink" width="840" height="581.04"><rect width="840" height="581.04" rx="5" ry="5" class="a"/><svg y="0%" x="0%"><circle cx="20" cy="20" r="6" fill="#ff5f58"/><circle cx="40" cy="20" r="6" fill="#ffbd2e"/><circle cx="60" cy="20" r="6" fill="#18c132"/></svg><svg height="521.04" viewBox="0 0 80 52.104" width="800" x="15" xmlns="http://www.w3.org/2000/svg" xmlns:xlink="http://www.w3.org/1999/xlink" y="50"><style>@keyframes i{0%{transform:translateX(0)}87.7%{transform:translateX(-80px)}to{transform:translateX(-160px)}}.a{fill:#282d35}.f{fill:#b9c0cb;white-space:pre}</style><g font-family="Monaco,Consolas,Menlo,'Bitstream Vera Sans Mono','Powerline Symbols',monospace" font-size="1.67"><defs><symbol id="1"><text y="1.67" class="f">pond@prod:~$</text><text x="13.026" y="1.67" class="f">whoami</text></symbol><symbol id="2"><text y="1.67" class="f">pond_np31</text><text x="10.02" y="1.67" class="f">(DevOps</text><text x="18.036" y="1.67" class="f">Engineer)</text></symbol><symbol id="a"><path fill="transparent" d="M0 0h80v25H0z"/></symbol><symbol id="b"><path fill="#6f7683" d="M0 0h1.102v2.171H0z"/></symbol></defs><path class="a" d="M0 0h80v52.104H0z"/><g style="animation-duration:.004755s;animation-iteration-count:infinite;animation-name:i;animation-timing-function:steps(1,end)"><svg width="240"><svg><use xlink:href="#a"/><use xlink:href="#b" x="-.004"/></svg><svg x="80"><use xlink:href="#a"/><use xlink:href="#b" x="-.004" y="6.488"/><use xlink:href="#1"/><use xlink:href="#2" y="2.171"/></svg><svg x="160"><use xlink:href="#a"/><use xlink:href="#b" x="-.004" y="36.882"/><use xlink:href="#1"/><use xlink:href="#2" y="2.171"/><text y="8.183" class="f">pond@prod:~$</text><text x="13.026" y="8.183" class="f">kubectl</text><text x="21.042" y="8.183" class="f">get</text><text x="25.05" y="8.183" class="f">nodes</text><text y="10.354" class="f">prod-node-1</text><text x="14.028" y="10.354" class="f">Ready</text><text y="12.525" class="f">prod-node-2</text><text x="14.028" y="12.525" class="f">Ready</text><text y="16.867" class="f">pond@prod:~$</text><text x="13.026" y="16.867" class="f">docker</text><text x="20.04" y="16.867" class="f">ps</text><text y="19.038" class="f">api-service</text><text x="19.038" y="19.038" class="f">running</text><text y="21.209" class="f">web-frontend</text><text x="19.038" y="21.209" class="f">running</text><text y="23.38" class="f">postgres-db</text><text x="19.038" y="23.38" class="f">healthy</text><text y="27.722" class="f">pond@prod:~$</text><text x="13.026" y="27.722" class="f">terraform</text><text x="23.046" y="27.722" class="f">plan</text><text y="29.893" class="f">No</text><text x="3.006" y="29.893" class="f">changes.</text><text x="12.024" y="29.893" class="f">Infrastructure</text><text x="27.054" y="29.893" class="f">is</text><text x="30.06" y="29.893" class="f">up-to-date.</text><text y="34.235" class="f">pond@prod:~$</text><text x="13.026" y="34.235" class="f">uptime</text><text y="36.406" class="f">production</text><text x="11.022" y="36.406" class="f">running</text><text x="19.038" y="36.406" class="f">since</text><text x="25.05" y="36.406" class="f">2022</text><text x="30.06" y="36.406" class="f">☁️</text></svg></svg></g></g></svg></svg>